# xmcd
#
# Track frame offsets: 
#        150
#        20146
#        42757
#        58817
#        78925
#        93163
#        115044
#        133092
#
# Disc length: 2070 seconds
#
# Revision: 0
# Processed by: cddbd v1.5.2PL0 Copyright (c) Steve Scherf et al.
# Submitted via: ExactAudioCopy v1.0b3
#
DISCID=61081408
DTITLE=Kalle Sändare - Boxen e' klar - CD 14 - Haverst och hundra bobi
DTITLE=ner
DYEAR=2014
DGENRE=Comedy
TTITLE0=Propellermössor till salu
TTITLE1=Julskinkor till tusen
TTITLE2=Propellerna
TTITLE3=Förbeställning till större sällskap
TTITLE4=Avbeställning av bord
TTITLE5=Servitör söker arbete
TTITLE6=Vad i all världen är en smurf
TTITLE7=Hälsostudion
EXTD=
EXTT0=
EXTT1=
EXTT2=
EXTT3=
EXTT4=
EXTT5=
EXTT6=
EXTT7=
PLAYORDER=
